<svg width="10" height="10" viewBox="0 0 10 10" fill="none" xmlns="http://www.w3.org/2000/svg">
<path d="M4.99188 0C2.23636 0 0 2.23636 0 4.99188C0 7.7474 2.23636 9.98377 4.99188 9.98377C7.7474 9.98377 9.98377 7.7474 9.98377 4.99188C9.98377 2.23636 7.7474 0 4.99188 0ZM6.75402 6.22486C6.89878 6.36963 6.89878 6.60927 6.75402 6.75403C6.67914 6.82891 6.58429 6.86384 6.48945 6.86384C6.3946 6.86384 6.29976 6.82891 6.22488 6.75403L4.99188 5.52102L3.75889 6.75403C3.68401 6.82891 3.58916 6.86384 3.49432 6.86384C3.39947 6.86384 3.30463 6.82891 3.22975 6.75403C3.08498 6.60927 3.08498 6.36963 3.22975 6.22486L4.46274 4.99188L3.22975 3.7589C3.08498 3.61414 3.08498 3.3745 3.22975 3.22973C3.37451 3.08497 3.61412 3.08497 3.75889 3.22973L4.99188 4.46274L6.22488 3.22973C6.36964 3.08497 6.60925 3.08497 6.75402 3.22973C6.89878 3.3745 6.89878 3.61414 6.75402 3.7589L5.52102 4.99188L6.75402 6.22486Z" fill="white"/>
</svg>
