<svg width="14" height="14" viewBox="0 0 14 14" fill="none" xmlns="http://www.w3.org/2000/svg">
<path fill-rule="evenodd" clip-rule="evenodd" d="M0.505108 7.31596L5.45038 8.55227L6.6867 13.4976C6.83853 14.1048 7.66798 14.187 7.93596 13.6213L13.936 0.954585C14.2041 0.388468 13.6142 -0.201458 13.0481 0.0667023L0.381407 6.0667C-0.184318 6.33468 -0.102185 7.16413 0.505108 7.31596ZM6.16182 7.35577L2.6357 6.47423L11.9319 2.07078L7.52842 11.367L6.64689 7.84084C6.58718 7.60198 6.40068 7.41548 6.16182 7.35577Z" fill="#AAAAAA"/>
<mask id="mask0_1_4829" style="mask-type:luminance" maskUnits="userSpaceOnUse" x="0" y="0" width="15" height="15">
<path fill-rule="evenodd" clip-rule="evenodd" d="M0.505108 7.31596L5.45038 8.55227L6.6867 13.4976C6.83853 14.1048 7.66798 14.187 7.93596 13.6213L13.936 0.954585C14.2041 0.388468 13.6142 -0.201458 13.0481 0.0667023L0.381407 6.0667C-0.184318 6.33468 -0.102185 7.16413 0.505108 7.31596ZM6.16182 7.35577L2.6357 6.47423L11.9319 2.07078L7.52842 11.367L6.64689 7.84084C6.58718 7.60198 6.40068 7.41548 6.16182 7.35577Z" fill="white"/>
</mask>
<g mask="url(#mask0_1_4829)">
</g>
</svg>
